<svg width="19" height="14" viewBox="0 0 19 14" fill="none" xmlns="http://www.w3.org/2000/svg">
<path fill-rule="evenodd" clip-rule="evenodd" d="M0.666687 1.16667V12.8333C0.666687 13.5493 1.50996 13.9319 2.04877 13.4605L8.71544 7.62715C9.09488 7.29514 9.09488 6.70486 8.71544 6.37285L2.04877 0.539518C1.50996 0.0680517 0.666687 0.4507 0.666687 1.16667ZM2.33335 3.00333L6.90085 7L2.33335 10.9958V3.00333ZM11.2154 0.539519C10.6766 0.0680518 9.83335 0.4507 9.83335 1.16667V12.8333C9.83335 13.5493 10.6766 13.9319 11.2154 13.4605L17.8821 7.62715C18.2615 7.29514 18.2615 6.70486 17.8821 6.37285L11.2154 0.539519ZM11.5 3.00333L16.0675 7L11.5 10.9958V3.00333Z" fill="#EAEAEA"/>
</svg>
