<svg width="31" height="31" viewBox="0 0 31 31" fill="none" xmlns="http://www.w3.org/2000/svg">
<rect width="31" height="31" fill="white"/>
<path d="M23.6154 4H8.38462C7.48726 4.00098 6.62694 4.35789 5.99241 4.99241C5.35789 5.62694 5.00098 6.48726 5 7.38462V22.6154C5.00098 23.5127 5.35789 24.3731 5.99241 25.0076C6.62694 25.6421 7.48726 25.999 8.38462 26H23.6154C24.5127 25.999 25.3731 25.6421 26.0076 25.0076C26.6421 24.3731 26.999 23.5127 27 22.6154V7.38462C26.999 6.48726 26.6421 5.62694 26.0076 4.99241C25.3731 4.35789 24.5127 4.00098 23.6154 4ZM21.7248 11.3134L14.6171 19.775C14.5391 19.8678 14.4421 19.9428 14.3326 19.9949C14.2231 20.047 14.1037 20.075 13.9825 20.0769H13.9682C13.8496 20.0769 13.7323 20.0519 13.624 20.0036C13.5157 19.9553 13.4187 19.8848 13.3394 19.7966L10.2932 16.412C10.2159 16.33 10.1557 16.2333 10.1162 16.1276C10.0768 16.022 10.0588 15.9095 10.0634 15.7969C10.0681 15.6842 10.0952 15.5736 10.1432 15.4715C10.1911 15.3695 10.259 15.278 10.3429 15.2026C10.4267 15.1272 10.5248 15.0692 10.6313 15.0322C10.7378 14.9952 10.8507 14.9799 10.9632 14.9871C11.0757 14.9944 11.1857 15.024 11.2866 15.0744C11.3875 15.1247 11.4773 15.1947 11.5508 15.2803L13.946 17.9414L20.4291 10.225C20.5745 10.0569 20.7803 9.95277 21.0019 9.93511C21.2234 9.91745 21.4431 9.9877 21.6133 10.1307C21.7835 10.2737 21.8906 10.4779 21.9115 10.6992C21.9323 10.9205 21.8653 11.1412 21.7248 11.3134Z" fill="#AE86FF"/>
</svg>
