<svg width="31" height="31" viewBox="0 0 31 31" fill="none" xmlns="http://www.w3.org/2000/svg">
<rect width="31" height="31" fill="white"/>
<path d="M10 20.6668H12.4C12.4 21.9868 14.044 23.1112 16 23.1112C17.956 23.1112 19.6 21.9868 19.6 20.6668C19.6 19.3223 18.352 18.8335 15.712 18.1857C13.168 17.5379 10 16.7312 10 13.3335C10 11.1457 11.764 9.2879 14.2 8.66457V6.00012H17.8V8.66457C20.236 9.2879 22 11.1457 22 13.3335H19.6C19.6 12.0135 17.956 10.889 16 10.889C14.044 10.889 12.4 12.0135 12.4 13.3335C12.4 14.6779 13.648 15.1668 16.288 15.8146C18.832 16.4623 22 17.269 22 20.6668C22 22.8546 20.236 24.7123 17.8 25.3357V28.0001H14.2V25.3357C11.764 24.7123 10 22.8546 10 20.6668Z" fill="#AE86FF"/>
</svg>
