<svg width="20" height="20" viewBox="0 0 20 20" fill="none" xmlns="http://www.w3.org/2000/svg">
<path fill-rule="evenodd" clip-rule="evenodd" d="M5.5 2.5C5.5 1.39543 6.39543 0.5 7.5 0.5C8.60457 0.5 9.5 1.39543 9.5 2.5C9.5 3.60457 8.60457 4.5 7.5 4.5C6.39543 4.5 5.5 3.60457 5.5 2.5ZM0.5 7.5C0.5 6.39543 1.39543 5.5 2.5 5.5C3.60457 5.5 4.5 6.39543 4.5 7.5C4.5 8.60457 3.60457 9.5 2.5 9.5C1.39543 9.5 0.5 8.60457 0.5 7.5ZM7.5 10.5C6.39543 10.5 5.5 11.3954 5.5 12.5C5.5 13.6046 6.39543 14.5 7.5 14.5C8.60457 14.5 9.5 13.6046 9.5 12.5C9.5 11.3954 8.60457 10.5 7.5 10.5ZM0.5 17.5C0.5 16.3954 1.39543 15.5 2.5 15.5C3.60457 15.5 4.5 16.3954 4.5 17.5C4.5 18.6046 3.60457 19.5 2.5 19.5C1.39543 19.5 0.5 18.6046 0.5 17.5ZM12.5 5.5C11.3954 5.5 10.5 6.39543 10.5 7.5C10.5 8.60457 11.3954 9.5 12.5 9.5C13.6046 9.5 14.5 8.60457 14.5 7.5C14.5 6.39543 13.6046 5.5 12.5 5.5ZM15.5 2.5C15.5 1.39543 16.3954 0.5 17.5 0.5C18.6046 0.5 19.5 1.39543 19.5 2.5C19.5 3.60457 18.6046 4.5 17.5 4.5C16.3954 4.5 15.5 3.60457 15.5 2.5ZM12.5 15.5C11.3954 15.5 10.5 16.3954 10.5 17.5C10.5 18.6046 11.3954 19.5 12.5 19.5C13.6046 19.5 14.5 18.6046 14.5 17.5C14.5 16.3954 13.6046 15.5 12.5 15.5ZM15.5 12.5C15.5 11.3954 16.3954 10.5 17.5 10.5C18.6046 10.5 19.5 11.3954 19.5 12.5C19.5 13.6046 18.6046 14.5 17.5 14.5C16.3954 14.5 15.5 13.6046 15.5 12.5Z" fill="#131313"/>
</svg>
