<svg width="31" height="31" viewBox="0 0 31 31" fill="none" xmlns="http://www.w3.org/2000/svg">
<rect width="31" height="31" fill="white"/>
<path d="M23 7.00012H21V6.00012C21 5.73491 20.8946 5.48055 20.7071 5.29302C20.5196 5.10548 20.2652 5.00012 20 5.00012C19.7348 5.00012 19.4804 5.10548 19.2929 5.29302C19.1054 5.48055 19 5.73491 19 6.00012V7.00012H13V6.00012C13 5.73491 12.8946 5.48055 12.7071 5.29302C12.5196 5.10548 12.2652 5.00012 12 5.00012C11.7348 5.00012 11.4804 5.10548 11.2929 5.29302C11.1054 5.48055 11 5.73491 11 6.00012V7.00012H9C8.20435 7.00012 7.44129 7.31619 6.87868 7.8788C6.31607 8.44141 6 9.20447 6 10.0001V22.0001C6 22.7958 6.31607 23.5588 6.87868 24.1214C7.44129 24.6841 8.20435 25.0001 9 25.0001H23C23.7956 25.0001 24.5587 24.6841 25.1213 24.1214C25.6839 23.5588 26 22.7958 26 22.0001V10.0001C26 9.20447 25.6839 8.44141 25.1213 7.8788C24.5587 7.31619 23.7956 7.00012 23 7.00012ZM24 22.0001C24 22.2653 23.8946 22.5197 23.7071 22.7072C23.5196 22.8948 23.2652 23.0001 23 23.0001H9C8.73478 23.0001 8.48043 22.8948 8.29289 22.7072C8.10536 22.5197 8 22.2653 8 22.0001V15.0001H24V22.0001ZM24 13.0001H8V10.0001C8 9.73491 8.10536 9.48055 8.29289 9.29302C8.48043 9.10548 8.73478 9.00012 9 9.00012H11V10.0001C11 10.2653 11.1054 10.5197 11.2929 10.7072C11.4804 10.8948 11.7348 11.0001 12 11.0001C12.2652 11.0001 12.5196 10.8948 12.7071 10.7072C12.8946 10.5197 13 10.2653 13 10.0001V9.00012H19V10.0001C19 10.2653 19.1054 10.5197 19.2929 10.7072C19.4804 10.8948 19.7348 11.0001 20 11.0001C20.2652 11.0001 20.5196 10.8948 20.7071 10.7072C20.8946 10.5197 21 10.2653 21 10.0001V9.00012H23C23.2652 9.00012 23.5196 9.10548 23.7071 9.29302C23.8946 9.48055 24 9.73491 24 10.0001V13.0001Z" fill="#AE86FF"/>
</svg>
