<svg width="16" height="21" viewBox="0 0 16 21" fill="none" xmlns="http://www.w3.org/2000/svg">
<path fill-rule="evenodd" clip-rule="evenodd" d="M13 20.9992V21.0002H3C1.34 21.0002 0 19.6502 0 18.0002V4.00016C0 2.34016 1.34 1.00016 3 1.00016H9.98134L10 1V0.999163C10.26 0.989163 10.52 1.09916 10.71 1.28916L15.71 6.28916C15.807 6.38621 15.8837 6.50652 15.9338 6.63911C15.9726 6.74018 15.9954 6.84953 15.9994 6.9643C15.9998 6.9759 16 6.98752 16 6.99916V7V17.9992C16 19.6492 14.65 20.9992 13 20.9992ZM3 3.00016H9V6C9 7.1 9.89 8 11 8H14V18.0002C14 18.5502 13.55 19.0002 13 19.0002H3C2.44 19.0002 2 18.5502 2 18.0002V4.00016C2 3.44016 2.44 3.00016 3 3.00016ZM11 6V4.41016L12.5898 6H11ZM5 7H6C6.55 7 7 6.55 7 6C7 5.44 6.55 5 6 5H5C4.44 5 4 5.44 4 6C4 6.55 4.44 7 5 7ZM11 13H5C4.44 13 4 12.55 4 12C4 11.44 4.44 11 5 11H11C11.55 11 12 11.44 12 12C12 12.55 11.55 13 11 13ZM8 16C8 16.55 8.44 17 9 17H11C11.55 17 12 16.55 12 16C12 15.44 11.55 15 11 15H9C8.44 15 8 15.44 8 16Z" fill="#EAEAEA"/>
</svg>

