<svg width="131" height="32" viewBox="0 0 131 32" fill="none" xmlns="http://www.w3.org/2000/svg">
<g clip-path="url(#clip0_36_2224)">
<path d="M28.3073 15.8521C28.3073 16.2333 28.2939 16.6107 28.2672 16.9844C28.2403 17.366 28.2002 17.7434 28.1466 18.1167C28.0922 18.499 28.0241 18.8765 27.9422 19.249C27.8588 19.6317 27.7616 20.0091 27.6506 20.3813C27.5374 20.7651 27.4093 21.1426 27.2662 21.5136C27.2368 21.5917 27.2062 21.6693 27.175 21.7468C27.0535 22.0514 26.9224 22.3511 26.7816 22.6459C26.5981 23.0328 26.3996 23.4102 26.186 23.7781C26.1396 23.8597 26.0915 23.9407 26.0427 24.0211C25.8605 24.323 25.6682 24.6195 25.4659 24.9104C25.2881 25.1656 25.1029 25.4151 24.9104 25.6589C24.8085 25.7884 24.7046 25.9163 24.5985 26.0427C24.3366 26.3541 24.0631 26.6561 23.7782 26.9486C23.7027 27.0241 23.6272 27.0996 23.5517 27.175C23.2615 27.4596 22.9605 27.7331 22.6487 27.9954C22.5223 28.1015 22.3943 28.2054 22.2648 28.3073C22.0207 28.4998 21.7712 28.685 21.5164 28.8627C21.2269 29.0647 20.9304 29.257 20.627 29.4396C20.5466 29.4883 20.4656 29.5365 20.3841 29.5829C20.0161 29.7961 19.6387 29.9947 19.2518 30.1784C18.9574 30.3189 18.6578 30.4509 18.3528 30.5748C18.2752 30.6059 18.1976 30.6365 18.1195 30.6659C17.7485 30.8078 17.3711 30.936 16.9872 31.0503C16.6151 31.1613 16.2376 31.2585 15.8549 31.3419C15.4824 31.4234 15.105 31.4915 14.7227 31.5463C14.3498 31.6003 13.9723 31.6404 13.5904 31.6669C13.2167 31.6936 12.8393 31.7071 12.4581 31.7071H9.05836C9.43789 31.7062 9.81667 31.6733 10.1907 31.6085C10.2546 31.5978 10.3186 31.5859 10.382 31.5729C11.1121 31.425 11.8127 31.1571 12.4552 30.7803C12.5685 30.7146 12.6777 30.6461 12.7859 30.5736C13.0685 30.3861 13.3365 30.1774 13.5875 29.9492C13.7652 29.7886 13.9339 29.6185 14.0931 29.4396C14.3226 29.184 14.5322 28.911 14.7198 28.6232C14.7877 28.5197 14.8529 28.4149 14.9146 28.3073C15.3199 27.6075 15.5961 26.8404 15.7298 26.0427C15.8551 25.2931 15.8551 24.5278 15.7298 23.7781C15.5961 22.9805 15.3199 22.2134 14.9146 21.5136C14.8529 21.406 14.7877 21.3013 14.7198 21.1977C14.5322 20.9099 14.3226 20.6369 14.0931 20.3813C13.9339 20.2024 13.7652 20.0323 13.5875 19.8717C13.3365 19.6441 13.0685 19.436 12.7859 19.249C12.6777 19.1765 12.5679 19.108 12.4552 19.0424C11.4245 18.4395 10.2525 18.1201 9.05836 18.1167H0V0H12.4552C12.836 0 13.2135 0.0133988 13.5875 0.0401964C13.9691 0.0669941 14.3465 0.10719 14.7198 0.160786C15.1021 0.215136 15.4796 0.283262 15.8521 0.365165C16.2348 0.448198 16.6123 0.54539 16.9844 0.656728C17.3683 0.769958 17.7457 0.898097 18.1167 1.04115C18.1948 1.07059 18.2724 1.10115 18.3499 1.13229C18.6545 1.25383 18.9542 1.38593 19.249 1.5286C19.6359 1.71203 20.0133 1.91056 20.3813 2.12418C20.4628 2.17061 20.5438 2.21873 20.6242 2.26742C20.9261 2.44972 21.2226 2.64202 21.5136 2.84432C21.7687 3.02209 22.0182 3.20722 22.262 3.39971C22.3915 3.50162 22.5195 3.60579 22.6459 3.71222C22.9573 3.9719 23.2592 4.24421 23.5517 4.52918C23.6295 4.60467 23.7059 4.68013 23.781 4.75562C24.0656 5.04627 24.339 5.34821 24.6013 5.66147C24.7074 5.78754 24.8114 5.91549 24.9133 6.04531C25.1058 6.28952 25.2909 6.53899 25.4687 6.79377C25.6706 7.08286 25.8629 7.37937 26.0456 7.6832C26.0943 7.76358 26.1424 7.84455 26.1888 7.92606C26.4024 8.29406 26.601 8.67149 26.7844 9.05836C26.9248 9.35276 27.056 9.65242 27.1779 9.95739C27.209 10.0349 27.2396 10.1125 27.2691 10.1907C27.4109 10.5616 27.5391 10.9391 27.6534 11.3229C27.7644 11.6947 27.8616 12.0721 27.945 12.4552C28.0265 12.8277 28.0947 13.2052 28.1494 13.5875C28.2034 13.9604 28.2436 14.3379 28.27 14.7198C28.2949 15.0935 28.3073 15.4709 28.3073 15.8521Z" fill="#131313"/>
<path d="M9.11489 28.8735C11.3036 28.8735 13.0779 27.0991 13.0779 24.9104C13.0779 22.7217 11.3036 20.9474 9.11489 20.9474C6.92617 20.9474 5.15186 22.7217 5.15186 24.9104C5.15186 27.0991 6.92617 28.8735 9.11489 28.8735Z" fill="#131313"/>
<path d="M36.3174 26.3028V7.86267H41.9945C44.7377 7.86267 47.0379 8.74574 48.8956 10.5118C50.7533 12.278 51.6821 14.4682 51.6821 17.0828C51.6821 19.6973 50.7533 21.8876 48.8956 23.6537C47.0379 25.4198 44.7377 26.3028 41.9945 26.3028H36.3174ZM39.3643 23.4719H41.9945C43.9389 23.4719 45.5187 22.8659 46.7343 21.6539C47.9667 20.4418 48.5832 18.9181 48.5832 17.0828C48.5832 15.2474 47.9667 13.7237 46.7343 12.5117C45.5187 11.2996 43.9389 10.6937 41.9945 10.6937H39.3643V23.4719Z" fill="#131313"/>
<path d="M54.5439 26.3028V13.3167H57.4084V15.6283C57.6513 14.901 58.0943 14.3123 58.7364 13.8622C59.3961 13.412 60.0993 13.1869 60.8458 13.1869C61.2972 13.1869 61.6707 13.2215 61.9658 13.2908V16.2256C61.549 16.0698 61.0715 15.9919 60.5334 15.9919C59.6652 15.9919 58.9275 16.3468 58.3199 17.0567C57.7124 17.7493 57.4084 18.7189 57.4084 19.9656V26.3028H54.5439Z" fill="#131313"/>
<path d="M68.6034 31.731H65.4523L68.2388 25.6016L62.6396 13.3168H65.7908L69.7752 22.5109L73.7858 13.3168H76.963L68.6034 31.731Z" fill="#131313"/>
<path d="M81.8229 31.731H78.958V13.3168H81.8229V15.057C82.222 14.5029 82.7951 14.0354 83.5416 13.6545C84.3054 13.2562 85.1302 13.0571 86.0157 13.0571C87.7862 13.0571 89.2709 13.7151 90.4688 15.031C91.6839 16.3469 92.2915 17.9399 92.2915 19.8098C92.2915 21.6799 91.6839 23.2728 90.4688 24.5887C89.2709 25.9046 87.7862 26.5626 86.0157 26.5626C85.1302 26.5626 84.3054 26.3721 83.5416 25.9912C82.7951 25.593 82.222 25.1168 81.8229 24.5627V31.731ZM85.4949 23.9654C86.6233 23.9654 87.5521 23.5671 88.281 22.7707C89.0102 21.9742 89.3749 20.9873 89.3749 19.8098C89.3749 18.6325 89.0102 17.6455 88.281 16.849C87.5521 16.0526 86.6233 15.6543 85.4949 15.6543C84.3487 15.6543 83.4115 16.0526 82.6822 16.849C81.953 17.6455 81.5883 18.6325 81.5883 19.8098C81.5883 20.9873 81.953 21.9742 82.6822 22.7707C83.4115 23.5671 84.3487 23.9654 85.4949 23.9654Z" fill="#131313"/>
<path d="M100.606 26.4327C99.286 26.4327 98.2098 26.0691 97.3765 25.3419C96.5605 24.5973 96.1525 23.5238 96.1525 22.1213V15.862H93.4443V13.3168H96.1525V9.70667H99.017V13.3168H102.741V15.862H99.017V21.6538C99.017 22.4503 99.1909 23.0217 99.5378 23.368C99.8852 23.6969 100.441 23.8614 101.205 23.8614C101.83 23.8614 102.342 23.7749 102.741 23.6017V26.147C102.116 26.3374 101.404 26.4327 100.606 26.4327Z" fill="#131313"/>
<path d="M116.009 24.6147C114.707 25.9133 113.092 26.5626 111.165 26.5626C109.238 26.5626 107.615 25.9133 106.295 24.6147C104.993 23.2988 104.342 21.6972 104.342 19.8098C104.342 17.9226 104.993 16.3296 106.295 15.031C107.615 13.7151 109.238 13.0571 111.165 13.0571C113.092 13.0571 114.707 13.7151 116.009 15.031C117.328 16.3296 117.988 17.9226 117.988 19.8098C117.988 21.6972 117.328 23.2988 116.009 24.6147ZM111.165 23.9134C112.293 23.9134 113.222 23.5239 113.952 22.7447C114.698 21.9482 115.071 20.9699 115.071 19.8098C115.071 18.6498 114.698 17.6802 113.952 16.901C113.222 16.1045 112.293 15.7063 111.165 15.7063C110.019 15.7063 109.073 16.1045 108.326 16.901C107.597 17.6802 107.233 18.6498 107.233 19.8098C107.233 20.9699 107.597 21.9482 108.326 22.7447C109.073 23.5239 110.019 23.9134 111.165 23.9134Z" fill="#131313"/>
<path d="M119.708 28.5884V26.3029H130.855V28.5884H119.708Z" fill="#131313"/>
</g>
<defs>
<clipPath id="clip0_36_2224">
<rect width="130.947" height="32" fill="white"/>
</clipPath>
</defs>
</svg>
