<svg width="125" height="125" viewBox="0 0 125 125" fill="none" xmlns="http://www.w3.org/2000/svg">
<path d="M74.7355 76.7916C77.3313 77.2562 80.0584 76.6208 82.3376 75.2958C87.4855 72.3062 90.1251 66.1291 90.3792 60.1895C90.6334 54.25 88.8688 48.4104 87.0188 42.7541C86.8105 42.1291 86.6126 41.4395 86.8855 40.8437C87.2771 39.9812 88.3938 39.802 89.323 39.6312C91.3105 39.25 93.1563 38.3395 94.6688 36.9979C96.1813 35.6562 97.3042 33.9291 97.9188 32.002C98.5334 30.075 98.6167 28.0187 98.1626 26.0479C97.7063 24.077 96.7271 22.2666 95.3292 20.8041C92.6209 17.9854 88.5667 16.7499 84.6605 16.8229C81.0896 16.8874 77.4396 18.0312 74.8584 20.4999C72.2771 22.9687 70.9605 26.875 72.0834 30.2708L70.2459 30.8625C64.1771 28.4104 57.2626 28 51.0126 29.9479C44.7626 31.8958 39.2459 36.227 36.0751 41.9541C34.2688 45.2166 33.2271 48.8604 32.6855 52.55C32.1896 55.9333 34.2834 61.7333 36.8542 63.9937L41.7896 51.3687C45.0251 51.8937 48.323 51.0916 51.4459 50.0958C57.2188 48.2541 63.1667 45.375 66.0292 40.0354C65.0271 42.8208 65.0563 45.6104 65.273 48.3437C65.4813 50.9083 65.8542 53.5125 66.9876 55.8229C68.1209 58.1333 70.1126 60.1333 72.623 60.725" fill="#F6F8FA"/>
<path d="M70.7293 81.875C70.4918 79.0229 71.0502 76.4562 72.2918 73.8771C72.5731 73.2937 73.1773 73.3 73.7752 73.1104C74.3064 72.9437 74.8273 72.7521 75.3418 72.5354C76.3856 72.1021 77.371 71.5416 78.2793 70.8687C80.0752 69.5125 81.4752 67.6083 82.0002 65.4C82.4773 63.3979 82.1418 61.0146 79.9168 59.8875C78.3481 59.0958 76.9418 59.3771 74.5523 61.4771L72.6377 60.7271C70.1377 60.1354 68.1356 58.1354 67.0023 55.825C65.8689 53.5146 65.4918 50.9104 65.2877 48.3458C65.0793 45.6125 65.0418 42.8229 66.0439 40.0375C63.1752 45.3771 57.2273 48.2562 51.4606 50.0979C48.3356 51.0937 45.0398 51.8958 41.8043 51.3708L39.3606 52.6208C38.0168 56.0771 37.2085 59.1979 37.0043 61.0875C36.4898 65.8458 37.4502 71.1333 41.0898 74.5229C43.0293 76.3271 45.4314 77.2146 48.0002 77.6666C50.6793 78.1396 53.5543 78.5708 56.1543 77.5083C56.0168 79.6771 55.996 81.225 56.096 83.3958" fill="#F6F8FA"/>
<path fill-rule="evenodd" clip-rule="evenodd" d="M74.5272 78.023C75.1689 78.1376 75.8251 78.1938 76.4855 78.1938C78.673 78.1938 80.9209 77.5709 82.9772 76.3813C88.021 73.4521 91.3397 67.2709 91.6397 60.248C91.9001 54.1876 90.1689 48.3334 88.2189 42.3688L88.2175 42.3646C88.1435 42.1385 87.9506 41.5489 88.0355 41.3646C88.1395 41.1317 88.9807 40.9735 89.4354 40.888L89.4354 40.888L89.4376 40.8876L89.5709 40.8626C91.7772 40.4376 93.8314 39.4271 95.5105 37.9355C97.1918 36.4438 98.4397 34.5251 99.123 32.3855C99.8043 30.2459 99.898 27.9584 99.3918 25.7688C98.8855 23.5792 97.798 21.5646 96.2439 19.9417C93.5022 17.0792 89.2772 15.4896 84.6501 15.5751C80.4147 15.6521 76.6355 17.0813 74.0064 19.6001C71.2108 22.2778 69.9252 26.2124 70.6367 29.677C64.1632 27.0769 57.0611 26.7508 50.6314 28.7542C43.9605 30.8334 38.2522 35.423 34.973 41.348C33.2439 44.473 32.0543 48.1792 31.4397 52.3688C30.7126 57.3188 31.5876 60.9188 34.0376 63.073C34.2751 63.2813 34.5689 63.3834 34.8626 63.3834C35.1221 63.3834 35.3817 63.3024 35.5998 63.144C35.5269 68.182 37.158 72.5758 40.2147 75.423C42.1168 77.1917 44.5855 78.323 47.7626 78.8834C49.7293 79.2271 52.2793 79.6709 54.7835 79.1875C54.7418 80.1938 54.7564 80.9313 54.823 82.398C54.8543 83.0688 55.4064 83.5917 56.071 83.5917C56.0897 83.5917 56.1085 83.5917 56.1314 83.5834C56.821 83.5521 57.3543 82.9667 57.323 82.2771C57.223 80.1271 57.246 79.6646 57.3793 77.5688C57.4064 77.1396 57.2105 76.7271 56.8605 76.475C56.5105 76.225 56.0564 76.1709 55.6585 76.3334C53.4626 77.2313 50.9772 76.9042 48.1939 76.4188C45.471 75.9396 43.4772 75.0417 41.9189 73.5917C39.0043 70.8792 37.6585 66.3646 38.223 61.2084C38.3939 59.6646 39.0814 56.7125 40.5022 53.0584C40.7522 52.4146 40.4335 51.6896 39.7897 51.4396C39.146 51.1896 38.421 51.5084 38.171 52.1521C36.8897 55.4459 35.9814 58.7292 35.7376 60.9355C35.7275 61.0282 35.7179 61.1207 35.7089 61.2131C35.7026 61.2073 35.6962 61.2016 35.6897 61.1959C33.9147 59.6375 33.3189 56.7896 33.9126 52.7334C34.4834 48.8417 35.5751 45.4209 37.1584 42.5605C40.1314 37.1938 45.3126 33.0313 51.3751 31.1417C57.2793 29.3021 63.8105 29.6167 69.7689 32.023C70.4084 32.2813 71.1376 31.9709 71.3959 31.3313L71.4009 31.3188C71.7077 31.5191 72.0996 31.5833 72.4751 31.4605C73.1314 31.2459 73.4876 30.5396 73.273 29.8834C72.3605 27.098 73.3501 23.6896 75.7355 21.4042C77.8772 19.3521 81.1439 18.1396 84.6959 18.0751C88.6293 18.0042 92.1772 19.3126 94.4376 21.6709C95.6814 22.9688 96.5522 24.5813 96.9564 26.3313C97.3605 28.0834 97.2855 29.9126 96.7397 31.6251C96.1939 33.3355 95.1939 34.8709 93.8501 36.0646C92.5064 37.2584 90.8626 38.0667 89.1001 38.4063L88.9751 38.4292L88.972 38.4298C87.9469 38.6236 86.3995 38.9161 85.7605 40.3251C85.2689 41.3959 85.6272 42.4917 85.8418 43.1438C87.7189 48.8813 89.3834 54.498 89.1418 60.1376C88.9355 64.9813 86.8772 71.223 81.721 74.2167C79.5564 75.4751 77.1564 75.9542 74.9668 75.5626C74.2876 75.4417 73.6376 75.8938 73.5168 76.573C73.396 77.2521 73.848 77.9021 74.5272 78.023ZM72.6189 61.9709C72.523 61.9709 72.4272 61.9605 72.3293 61.9376C69.6814 61.3105 67.2626 59.2292 65.8605 56.3688C64.5918 53.7792 64.2189 50.9063 64.023 48.4376C63.9335 47.2501 63.871 46.0251 63.9147 44.7792C61.1001 47.4501 57.1001 49.5959 51.823 51.2813C48.7626 52.2563 45.1522 53.1771 41.5855 52.598C40.9043 52.4876 40.4418 51.8459 40.5522 51.1646C40.6626 50.4834 41.3064 50.0209 41.9855 50.1313C45.023 50.623 48.1439 49.8313 51.0626 48.9021C58.2918 46.5938 62.696 43.5876 64.9251 39.4417C65.2355 38.8646 65.9376 38.6251 66.5355 38.8917C67.1335 39.1584 67.4251 39.8417 67.2022 40.4563C66.3251 42.8917 66.2939 45.3334 66.5168 48.2459C66.6939 50.4751 67.023 53.0584 68.1064 55.2688C69.1835 57.4646 70.9793 59.048 72.9064 59.5042C73.3773 59.6154 73.7229 59.9811 73.8324 60.4212C77.0439 57.6481 78.9157 57.9829 80.4605 58.7625C82.8855 59.9875 83.9335 62.6396 83.196 65.6855C82.6335 68.0521 81.148 70.2459 79.0147 71.8563C78.0189 72.5959 76.9397 73.2084 75.8022 73.6792C75.2626 73.9063 74.698 74.1146 74.1293 74.2917C73.9564 74.3459 73.7897 74.3876 73.6439 74.423L73.5765 74.4395C73.4993 74.4584 73.4156 74.4788 73.3564 74.498C72.1585 76.998 71.7876 77.9375 71.996 80.3875C72.0543 81.075 71.5439 81.6792 70.8564 81.7375C70.8189 81.7459 70.7835 81.748 70.748 81.748C70.1064 81.748 69.5585 81.2563 69.5043 80.6021C69.2397 77.4646 69.8501 76.0292 71.146 73.3292C71.621 72.3438 72.5189 72.1271 73.0564 71.998L73.1294 71.9799C73.2191 71.958 73.3037 71.9372 73.3793 71.9125C73.8751 71.7563 74.3647 71.5771 74.8376 71.3771C75.7939 70.9813 76.6918 70.4709 77.5168 69.8584C79.1793 68.6021 80.3376 66.9125 80.7668 65.1042C80.9876 64.1938 81.2876 61.9813 79.3355 60.9959C78.4835 60.5646 77.648 60.3959 75.3585 62.4084C74.8397 62.8646 74.0501 62.8125 73.5939 62.2938C73.454 62.1348 73.3619 61.9503 73.3164 61.7578C73.1135 61.894 72.8714 61.9709 72.6189 61.9709ZM45.5064 58.3542C46.3118 58.3542 46.9647 57.5614 46.9647 56.5834C46.9647 55.6054 46.3118 54.8126 45.5064 54.8126C44.701 54.8126 44.048 55.6054 44.048 56.5834C44.048 57.5614 44.701 58.3542 45.5064 58.3542ZM54.0481 57.073C54.0481 58.051 53.3951 58.8438 52.5897 58.8438C51.7843 58.8438 51.1314 58.051 51.1314 57.073C51.1314 56.095 51.7843 55.3021 52.5897 55.3021C53.3951 55.3021 54.0481 56.095 54.0481 57.073Z" fill="#131313"/>
<path d="M84.0191 29.584L84.0745 29.2851C84.2087 28.5614 84.8037 27.9557 85.8596 27.468C85.8949 27.4528 85.9967 27.4012 86.1649 27.313C86.3436 27.2268 86.4507 27.1761 86.486 27.161C86.5338 27.1373 86.6241 27.089 86.757 27.016C86.9003 26.9449 86.9916 26.8913 87.0309 26.8552C87.072 26.8086 87.1381 26.7449 87.229 26.6641C87.3199 26.5833 87.3827 26.5081 87.4172 26.4386C87.4518 26.3691 87.4884 26.2891 87.5268 26.1986C87.5777 26.0995 87.6129 25.9975 87.6323 25.8927C87.7179 25.4312 87.6358 25.0254 87.386 24.6754C87.1363 24.3254 86.7755 24.1066 86.3035 24.0191C85.7896 23.9239 85.3295 24.0068 84.9231 24.2677C84.5167 24.5287 84.2649 24.9214 84.1678 25.4458L82.4372 25.1251C82.6141 24.1707 83.1056 23.421 83.9118 22.8761C84.7198 22.3208 85.622 22.1354 86.6184 22.3201C87.5938 22.5008 88.3378 22.9642 88.8505 23.7101C89.3631 24.456 89.5378 25.2695 89.3745 26.1505C89.1763 27.2203 88.4903 28.0532 87.3167 28.6493C86.6124 28.9961 86.1808 29.247 86.0219 29.4019C85.8773 29.5379 85.7915 29.6793 85.7642 29.8261L85.7497 29.9048L84.0191 29.584ZM84.1281 33.7374C83.761 33.6694 83.4654 33.479 83.2413 33.1663C83.0296 32.845 82.9588 32.4955 83.0288 32.118C83.0968 31.7509 83.2872 31.4553 83.5999 31.2312C83.9232 31.0091 84.2683 30.932 84.6354 31C85.013 31.07 85.3076 31.2657 85.5193 31.5869C85.7414 31.9102 85.8185 32.2553 85.7504 32.6224C85.6804 33 85.4838 33.2998 85.1606 33.522C84.8498 33.7356 84.5056 33.8074 84.1281 33.7374Z" fill="#131313"/>
</svg>
