<svg width="31" height="31" viewBox="0 0 31 31" fill="none" xmlns="http://www.w3.org/2000/svg">
<rect width="31" height="31" fill="white"/>
<path d="M22.3281 25.5002C21.4131 25.5002 20.1278 25.1692 18.2031 24.0939C15.8627 22.7814 14.0523 21.5697 11.7245 19.248C9.48016 17.005 8.38797 15.5528 6.85938 12.7713C5.13251 9.63064 5.42688 7.98439 5.75594 7.2808C6.14782 6.43986 6.72625 5.93689 7.47391 5.43768C7.89858 5.15944 8.34798 4.92093 8.81641 4.72518C8.86329 4.70502 8.90688 4.6858 8.94579 4.66846C9.17782 4.56393 9.52938 4.40596 9.97469 4.57471C10.2719 4.68627 10.5372 4.91455 10.9525 5.32471C11.8042 6.16471 12.9681 8.03549 13.3975 8.95424C13.6858 9.57346 13.8766 9.98221 13.877 10.4406C13.877 10.9774 13.607 11.3913 13.2794 11.838C13.218 11.9219 13.157 12.0021 13.098 12.0799C12.7413 12.5486 12.663 12.6841 12.7145 12.926C12.8191 13.4121 13.5986 14.8591 14.8797 16.1374C16.1608 17.4156 17.5661 18.146 18.0541 18.25C18.3063 18.3039 18.4445 18.2224 18.9283 17.853C18.9977 17.8 19.0689 17.7452 19.1434 17.6903C19.6431 17.3186 20.0378 17.0556 20.5619 17.0556H20.5647C21.0208 17.0556 21.4113 17.2535 22.0581 17.5797C22.9019 18.0053 24.8289 19.1542 25.6741 20.0069C26.0852 20.4213 26.3144 20.6856 26.4264 20.9824C26.5952 21.4291 26.4363 21.7792 26.3327 22.0136C26.3153 22.0525 26.2961 22.0952 26.2759 22.1425C26.0786 22.6101 25.8387 23.0586 25.5592 23.4822C25.0609 24.2275 24.5561 24.8046 23.7133 25.1969C23.2805 25.4016 22.8069 25.5053 22.3281 25.5002Z" fill="#AE86FF"/>
</svg>
