<svg width="20" height="20" viewBox="0 0 20 20" fill="none" xmlns="http://www.w3.org/2000/svg">
<path fill-rule="evenodd" clip-rule="evenodd" d="M7.35315 2.08124C7.23706 2.55865 6.69389 2.78376 6.27248 2.52754C3.83391 1.04292 1.04354 3.83396 2.52896 6.27226C2.64951 6.46998 2.66835 6.713 2.57986 6.9266C2.49137 7.14019 2.30618 7.29868 2.08148 7.35312C-0.693781 8.02639 -0.693782 11.9736 2.08121 12.6468C2.30516 12.7013 2.49012 12.8597 2.57851 13.0732C2.6669 13.2867 2.64811 13.5295 2.52792 13.7268C1.04288 16.1661 3.83393 18.9564 6.27223 17.471C6.46995 17.3505 6.71296 17.3316 6.92656 17.4201C7.14016 17.5086 7.29864 17.6938 7.35309 17.9185C8.02636 20.6937 11.9736 20.6937 12.6468 17.9188C12.7012 17.6948 12.8597 17.5098 13.0732 17.4215C13.2866 17.3331 13.5295 17.3519 13.7268 17.472C16.166 18.9571 18.9564 16.166 17.471 13.7277C17.3504 13.53 17.3316 13.287 17.4201 13.0734C17.5086 12.8598 17.6937 12.7013 17.9184 12.6469C20.6937 11.9736 20.6937 8.02639 17.9187 7.35319C17.6948 7.29873 17.5098 7.14027 17.4214 6.92681C17.333 6.71334 17.3518 6.47051 17.472 6.2732C18.9571 3.83394 16.166 1.04357 13.7277 2.52899C13.53 2.64955 13.287 2.66839 13.0734 2.5799C12.8598 2.4914 12.7013 2.30622 12.6468 2.08124C11.9736 -0.693747 8.02636 -0.693747 7.35315 2.08124ZM10.7031 2.55248C10.9079 3.3979 11.5042 4.09465 12.3079 4.4276C13.1115 4.76055 14.0258 4.68966 14.7685 4.23681C15.3881 3.85937 16.0943 4.52202 15.809 5.14796L15.7638 5.23298C15.3117 5.97519 15.241 6.88882 15.5736 7.69195C15.9061 8.49509 16.602 9.09128 17.4467 9.29668C18.1842 9.47561 18.1842 10.5244 17.4472 10.7032C16.6021 10.908 15.9053 11.5043 15.5724 12.3079C15.2394 13.1115 15.3103 14.0259 15.7632 14.7686C16.1406 15.3882 15.4779 16.0943 14.852 15.809L14.767 15.7638C14.0248 15.3118 13.1111 15.241 12.308 15.5736C11.5049 15.9062 10.9087 16.6021 10.7033 17.4467C10.5244 18.1843 9.47557 18.1843 9.29678 17.4472C9.092 16.6021 8.49571 15.9054 7.69207 15.5724C6.88843 15.2395 5.9741 15.3103 5.23138 15.7632C4.61181 16.1406 3.90564 15.478 4.19097 14.852L4.23612 14.767C4.6882 14.0248 4.75892 13.1112 4.42636 12.308C4.0938 11.5049 3.39791 10.9087 2.55326 10.7033C1.81571 10.5244 1.81571 9.47561 2.55272 9.29681C3.39787 9.09204 4.09461 8.49574 4.42756 7.6921C4.76051 6.88846 4.68962 5.97413 4.23678 5.23142C3.84218 4.58368 4.58438 3.8413 5.23295 4.23616C6.81116 5.19571 8.86063 4.34635 9.29665 2.55329C9.46616 1.85457 10.4164 1.81779 10.6679 2.44251L10.7031 2.55248ZM9.99997 6C7.79083 6 5.99997 7.79086 5.99997 10C5.99997 12.2091 7.79083 14 9.99997 14C12.2091 14 14 12.2091 14 10C14 7.79086 12.2091 6 9.99997 6ZM9.99997 8C11.1045 8 12 8.89543 12 10C12 11.1046 11.1045 12 9.99997 12C8.8954 12 7.99997 11.1046 7.99997 10C7.99997 8.89543 8.8954 8 9.99997 8Z" fill="#EAEAEA"/>
</svg>
