<svg width="20" height="18" viewBox="0 0 20 18" fill="none" xmlns="http://www.w3.org/2000/svg">
<path fill-rule="evenodd" clip-rule="evenodd" d="M3.29933 7.72154C3.47922 7.90134 3.73907 8.01121 4.00891 8.01121L3.98793 7.99024C4.24777 7.99024 4.50762 7.88036 4.69751 7.70056H4.7075C5.09727 7.31099 5.09727 6.6717 4.7075 6.29213L3.42357 5.01444H19.0006C19.5503 5.01444 20 4.56494 20 4.01555C20 3.45617 19.5503 3.01666 19.0006 3.01666H3.40169L4.7075 1.71721C5.09727 1.31766 5.09727 0.688359 4.7075 0.298793C4.30774 -0.0997639 3.67811 -0.0997639 3.28833 0.299792H3.28933L0.291091 3.29646V3.30645C-0.0986803 3.69601 -0.0986803 4.3353 0.301085 4.72487L3.29933 7.72154ZM19.5344 14.8479L16.6914 17.6893C16.5015 17.8691 16.2417 17.979 15.9818 17.979L16.0018 18C15.732 18 15.4721 17.8901 15.2922 17.7103C14.8925 17.3208 14.8925 16.6815 15.2822 16.2919V16.2819L16.5671 15.0033H1.01113C0.451461 15.0033 0.0117187 14.5538 0.0117187 14.0044C0.0117187 13.4451 0.451461 13.0056 1.01113 13.0056H16.5872L15.2822 11.707V11.706C14.8825 11.3064 14.8825 10.6771 15.2822 10.2876C15.672 9.88802 16.3016 9.88802 16.7014 10.2876L19.6997 13.2842C19.7812 13.3637 19.8457 13.4545 19.8932 13.5521C19.9615 13.6872 20 13.8407 20 14.0044C20 14.358 19.8137 14.6702 19.5344 14.8479Z" fill="#EAEAEA"/>
</svg>
