<svg width="31" height="31" viewBox="0 0 31 31" fill="none" xmlns="http://www.w3.org/2000/svg">
<g clip-path="url(#clip0_113_865)">
<path d="M23.35 14.04C23.0141 12.3377 22.0976 10.8049 20.7571 9.70325C19.4165 8.60163 17.7351 7.99961 16 8C13.11 8 10.6 9.64 9.35 12.04C7.88023 12.1988 6.52101 12.8952 5.53349 13.9953C4.54597 15.0954 3.99983 16.5217 4 18C4 21.31 6.69 24 10 24H23C25.76 24 28 21.76 28 19C28 16.36 25.95 14.22 23.35 14.04ZM23 22H10C7.79 22 6 20.21 6 18C6 15.95 7.53 14.24 9.56 14.03L10.63 13.92L11.13 12.97C11.5899 12.0748 12.2879 11.3238 13.1471 10.7998C14.0064 10.2758 14.9936 9.99902 16 10C18.62 10 20.88 11.86 21.39 14.43L21.69 15.93L23.22 16.04C23.9717 16.0906 24.6764 16.424 25.1922 16.9732C25.708 17.5224 25.9966 18.2466 26 19C26 20.65 24.65 22 23 22ZM12 17H14.55V20H17.45V17H20L16 13L12 17Z" fill="#AE86FF"/>
</g>
<defs>
<clipPath id="clip0_113_865">
<rect width="24" height="24" fill="white" transform="translate(4 4)"/>
</clipPath>
</defs>
</svg>
